HIERARCHY
ROOT run
{
OFFSET 0.0 0.0 0.0 
CHANNELS 6 Xposition Yposition Zposition Xrotation Yrotation Zrotation
JOINT Spine_01
{
OFFSET 0.113846 125.062401 -47.579815
CHANNELS 3 Xrotation Yrotation Zrotation
JOINT Spine_02
{
OFFSET -1.089942 -4.358421 28.542002
CHANNELS 3 Xrotation Yrotation Zrotation
JOINT Spine_03
{
OFFSET -0.377767 -1.393097 36.826138
CHANNELS 3 Xrotation Yrotation Zrotation
JOINT Spine_04
{
OFFSET 1.351514 3.546082 39.13813
CHANNELS 3 Xrotation Yrotation Zrotation
JOINT Neck_Base
{
OFFSET 2.360031 2.774048 29.430767
CHANNELS 3 Xrotation Yrotation Zrotation
JOINT LowerBack
{
OFFSET 0.0 0.0 0.0
CHANNELS 3 Zrotation Yrotation Xrotation
JOINT Spine
{
OFFSET -0.0030600000000000002 19.11591 -2.2905
CHANNELS 3 Zrotation Yrotation Xrotation
JOINT Spine1
{
OFFSET 0.50346 19.29411 -0.29862
CHANNELS 3 Zrotation Yrotation Xrotation
JOINT Neck
{
OFFSET 0.0 0.0 0.0
CHANNELS 3 Zrotation Yrotation Xrotation
JOINT Neck1
{
OFFSET -0.8851500000000001 14.64525 2.1789899999999998
CHANNELS 3 Zrotation Yrotation Xrotation
JOINT Head
{
OFFSET 0.97641 14.94369 -2.0383199999999997
CHANNELS 3 Zrotation Yrotation Xrotation
End Site
{
OFFSET 0.39465 15.14403 -0.94869
}
}
}
}
JOINT LeftShoulder
{
OFFSET 0.0 0.0 0.0
CHANNELS 3 Zrotation Yrotation Xrotation
JOINT LeftArm
{
OFFSET 29.61972 7.1458200000000005 -6.13611
CHANNELS 3 Zrotation Yrotation Xrotation
JOINT LeftForeArm
{
OFFSET 46.377900000000004 -0.0 -0.0
CHANNELS 3 Zrotation Yrotation Xrotation
JOINT LeftHand
{
OFFSET 33.76242 -0.0 -0.0
CHANNELS 3 Zrotation Yrotation Xrotation
JOINT LeftFingerBase
{
OFFSET 0.0 0.0 0.0
CHANNELS 3 Zrotation Yrotation Xrotation
JOINT LeftHandIndex1
{
OFFSET 4.76253 -0.0 0.0
CHANNELS 3 Zrotation Yrotation Xrotation
End Site
{
OFFSET 3.83967 -0.0 0.0
}
}
}
JOINT LThumb
{
OFFSET 0.0 0.0 0.0
CHANNELS 3 Zrotation Yrotation Xrotation
End Site
{
OFFSET 3.8983499999999998 -0.0 3.8983499999999998
}
}
}
}
}
}
JOINT RightShoulder
{
OFFSET 0.0 0.0 0.0
CHANNELS 3 Zrotation Yrotation Xrotation
JOINT RightArm
{
OFFSET -27.66726 9.565650000000002 -3.99042
CHANNELS 3 Zrotation Yrotation Xrotation
JOINT RightForeArm
{
OFFSET -47.665169999999996 -0.0 0.0
CHANNELS 3 Zrotation Yrotation Xrotation
JOINT RightHand
{
OFFSET -33.852959999999996 -0.0 -0.0
CHANNELS 3 Zrotation Yrotation Xrotation
JOINT RightFingerBase
{
OFFSET 0.0 0.0 0.0
CHANNELS 3 Zrotation Yrotation Xrotation
JOINT RightHandIndex1
{
OFFSET -6.72588 -0.0 0.0
CHANNELS 3 Zrotation Yrotation Xrotation
End Site
{
OFFSET -5.42259 -0.0 0.0
}
}
}
JOINT RThumb
{
OFFSET 0.0 0.0 0.0
CHANNELS 3 Zrotation Yrotation Xrotation
End Site
{
OFFSET -5.50539 -0.0 5.50539
}
}
}
}
}
}
}
}
}
}
JOINT R_Scapula
{
OFFSET -6.095381 17.31781 8.671352
CHANNELS 3 Xrotation Yrotation Zrotation
JOINT R_Shoulder
{
OFFSET -1.11513 -31.803375 27.376656
CHANNELS 3 Xrotation Yrotation Zrotation
JOINT R_Front_UpperLeg
{
OFFSET -4.05782 -32.021416 -8.177231
CHANNELS 3 Xrotation Yrotation Zrotation
JOINT R_Front_LowerLeg
{
OFFSET 1.553888 -30.822193 25.215584
CHANNELS 3 Xrotation Yrotation Zrotation
JOINT R_Front_Ankle
{
OFFSET 1.188602 -27.449919 13.561226
CHANNELS 3 Xrotation Yrotation Zrotation
JOINT R_Front_Hoof
{
OFFSET 4e-06 -9.177123 4.105614
CHANNELS 3 Xrotation Yrotation Zrotation
End Site
{
OFFSET -3e-06 -4e-06 -10.053635
}
}
}
}
}
}
}
JOINT L_Scapula
{
OFFSET 7.373911 17.328003 7.590313
CHANNELS 3 Xrotation Yrotation Zrotation
JOINT L_Shoulder
{
OFFSET 4.706675 -39.12355 14.468903
CHANNELS 3 Xrotation Yrotation Zrotation
JOINT L_Front_UpperLeg
{
OFFSET -0.569906 -18.276909 -27.826672
CHANNELS 3 Xrotation Yrotation Zrotation
JOINT L_Front_LowerLeg
{
OFFSET -0.478388 -36.4701 -16.060204
CHANNELS 3 Xrotation Yrotation Zrotation
JOINT L_Front_Ankle
{
OFFSET -0.280628 -23.263634 -19.938202
CHANNELS 3 Xrotation Yrotation Zrotation
JOINT L_Front_Hoof
{
OFFSET 0.004587 -9.384029 -3.607539
CHANNELS 3 Xrotation Yrotation Zrotation
End Site
{
OFFSET 0.011364 -7.125093 7.092755
}
}
}
}
}
}
}
}
}
}
JOINT L_Hip
{
OFFSET 14.989113 -6.453613 -12.736771
CHANNELS 3 Xrotation Yrotation Zrotation
JOINT L_Back_UpperLeg
{
OFFSET 0.039682 -35.143867 -4.992908
CHANNELS 3 Xrotation Yrotation Zrotation
JOINT L_Back_LowerLeg
{
OFFSET -0.453015 -19.382568 -40.51619
CHANNELS 3 Xrotation Yrotation Zrotation
JOINT L_Back_Ankle
{
OFFSET 5.507794 -34.576538 9.141853
CHANNELS 3 Xrotation Yrotation Zrotation
JOINT L_Back_Hoof
{
OFFSET 0.484327 -7.440332 -8.983963
CHANNELS 3 Xrotation Yrotation Zrotation
End Site
{
OFFSET 2.391207 -11.236143 -2.082306
}
}
}
}
}
}
JOINT R_Hip
{
OFFSET -14.784759 -6.453499 -12.973389
CHANNELS 3 Xrotation Yrotation Zrotation
JOINT R_Back_UpperLeg
{
OFFSET 0.117544 -32.269318 -14.788715
CHANNELS 3 Xrotation Yrotation Zrotation
JOINT R_Back_LowerLeg
{
OFFSET 0.443617 -26.906349 -35.962433
CHANNELS 3 Xrotation Yrotation Zrotation
JOINT R_Back_Ankle
{
OFFSET 0.017659 -33.290115 -14.185234
CHANNELS 3 Xrotation Yrotation Zrotation
JOINT R_Back_Hoof
{
OFFSET -0.346885 -9.917637 -6.150139
CHANNELS 3 Xrotation Yrotation Zrotation
End Site
{
OFFSET 2.106386 8.907843 -7.246902
}
}
}
}
}
}
JOINT Tail_01
{
OFFSET 0.180665 11.804451 -22.730854
CHANNELS 3 Xrotation Yrotation Zrotation
JOINT Tail_02
{
OFFSET 2.602429 -15.155418 -15.859962
CHANNELS 3 Xrotation Yrotation Zrotation
JOINT Tail_03
{
OFFSET 0.893097 -20.299004 -11.505386
CHANNELS 3 Xrotation Yrotation Zrotation
JOINT Tail_04
{
OFFSET -0.929188 -21.081474 -9.701576
CHANNELS 3 Xrotation Yrotation Zrotation
JOINT Tail_05
{
OFFSET -3.146472 -19.293648 -12.8013
CHANNELS 3 Xrotation Yrotation Zrotation
End Site
{
OFFSET 2.170052 12.616272 -19.54837
}
}
}
}
}
}
}
}
MOTION
Frames: 5
Frame Time: 0.0083333
0.000000 0.000000 0.000000 0.000004 0.000000 -0.000000 0.000023 0.000002 -0.000018 0.000001 -0.000000 -0.000002 -0.000010 -0.000001 0.000007 0.000003 -0.000001 0.000015 -0.000002 -0.000002 -0.000022 0.000000 0.000000 0.000000 0.000000 0.000000 0.000000 0.000000 0.000000 0.000000 0.000000 0.000000 -16.000000 0.000000 0.000000 21.000000 0.000000 0.000000 11.000000 0.000000 0.000000 0.000000 -8.000000 0.000000 0.000000 0.000000 0.000000 0.000000 0.000000 0.000000 0.000000 0.000000 0.000000 0.000000 0.000000 0.000000 0.000000 0.000000 0.000000 0.000000 0.000000 0.000000 0.000000 8.000000 0.000000 0.000000 0.000000 0.000000 0.000000 0.000000 0.000000 0.000000 0.000000 0.000000 0.000000 0.000000 0.000000 0.000000 0.000000 0.000000 0.000000 -0.000012 0.000003 -0.000020 0.000021 -0.000004 -0.000003 -0.000007 -0.000004 0.000003 -0.000026 -0.000001 -0.000001 -0.000010 0.000000 0.000003 0.000026 -0.000088 0.000100 -0.000002 -0.000000 -0.000023 0.000005 -0.000004 0.000000 0.000017 0.000004 -0.000004 -0.000014 0.000025 0.000011 0.000009 -0.000002 0.000002 0.000004 0.000077 0.000030 0.000002 -0.000001 0.000001 0.000007 0.000003 -0.000001 0.000003 0.000000 -0.000005 -0.000032 0.000009 -0.000016 0.000031 -0.000010 0.000012 -0.000010 -0.000001 -0.000001 -0.000020 -0.000000 -0.000001 0.000006 0.000000 -0.000002 0.000017 0.000005 -0.000007 -0.000009 -0.000004 0.000008 -0.000021 0.000000 -0.000010 0.000014 -0.000001 0.000013 0.000008 0.000003 -0.000001 -0.000029 0.000008 0.000009 0.000048 0.000078 0.000053
0.000000 0.000000 0.000000 0.000004 0.000000 -0.000000 0.000023 0.000002 -0.000018 0.000001 -0.000000 -0.000002 -0.000010 -0.000001 0.000007 0.000003 -0.000001 0.000015 -0.000002 -0.000002 -0.000022 0.071000 -2.010900 2.561400 2.935100 -2.646000 0.348700 3.059600 -1.320500 -0.941500 -12.247000 -0.964800 -8.925000 7.822700 -0.444700 7.207000 4.375400 -0.172900 3.646700 -0.000000 0.000000 0.000000 -92.506100 4.633700 14.982200 20.914900 -31.728900 -6.005100 -0.000000 0.000000 -3.231100 16.774300 20.293800 5.968400 -7.125000 0.000000 -0.000000 -11.728200 50.727400 -1.675100 -0.000000 0.000000 0.000000 85.553000 -2.137500 29.185300 -21.544200 32.458000 -6.339500 0.000000 0.000000 0.578000 -17.186000 13.805400 -4.221000 7.125000 -0.000000 -0.000000 6.996400 -15.627600 4.890100 -0.000012 0.000003 -0.000020 0.000021 -0.000004 -0.000003 -0.000007 -0.000004 0.000003 -0.000026 -0.000001 -0.000001 -0.000010 0.000000 0.000003 0.000026 -0.000088 0.000100 -0.000002 -0.000000 -0.000023 0.000005 -0.000004 0.000000 0.000017 0.000004 -0.000004 -0.000014 0.000025 0.000011 0.000009 -0.000002 0.000002 0.000004 0.000077 0.000030 0.000002 -0.000001 0.000001 0.000007 0.000003 -0.000001 0.000003 0.000000 -0.000005 -0.000032 0.000009 -0.000016 0.000031 -0.000010 0.000012 -0.000010 -0.000001 -0.000001 -0.000020 -0.000000 -0.000001 0.000006 0.000000 -0.000002 0.000017 0.000005 -0.000007 -0.000009 -0.000004 0.000008 -0.000021 0.000000 -0.000010 0.000014 -0.000001 0.000013 0.000008 0.000003 -0.000001 -0.000029 0.000008 0.000009 0.000048 0.000078 0.000053
0.000000 0.000000 0.000000 0.000004 0.000000 -0.000000 0.000023 0.000002 -0.000018 0.000001 -0.000000 -0.000002 -0.000010 -0.000001 0.000007 0.000003 -0.000001 0.000015 -0.000002 -0.000002 -0.000022 -4.475800 -3.701200 8.566300 6.770100 -5.031600 -2.420100 10.509200 -2.167700 -6.376900 -15.572400 0.507400 -7.863700 5.539400 1.975000 9.177200 4.329300 0.731200 3.833500 -0.000000 -0.000000 0.000000 -99.828600 9.196300 10.027500 21.786600 -32.735000 -6.470100 -0.000000 0.000000 -2.829200 16.857600 21.301000 6.281600 -7.125000 0.000000 -0.000000 -12.029500 51.751700 -2.024400 -0.000000 -0.000000 0.000000 78.147600 -6.091200 35.098200 -22.373700 33.396800 -6.790400 0.000000 -0.000000 -1.071300 -15.617700 15.224700 -4.198400 7.125000 -0.000000 -0.000000 8.083900 -14.310300 5.895000 -0.000012 0.000003 -0.000020 0.000021 -0.000004 -0.000003 -0.000007 -0.000004 0.000003 -0.000026 -0.000001 -0.000001 -0.000010 0.000000 0.000003 0.000026 -0.000088 0.000100 -0.000002 -0.000000 -0.000023 0.000005 -0.000004 0.000000 0.000017 0.000004 -0.000004 -0.000014 0.000025 0.000011 0.000009 -0.000002 0.000002 0.000004 0.000077 0.000030 0.000002 -0.000001 0.000001 0.000007 0.000003 -0.000001 0.000003 0.000000 -0.000005 -0.000032 0.000009 -0.000016 0.000031 -0.000010 0.000012 -0.000010 -0.000001 -0.000001 -0.000020 -0.000000 -0.000001 0.000006 0.000000 -0.000002 0.000017 0.000005 -0.000007 -0.000009 -0.000004 0.000008 -0.000021 0.000000 -0.000010 0.000014 -0.000001 0.000013 0.000008 0.000003 -0.000001 -0.000029 0.000008 0.000009 0.000048 0.000078 0.000053
0.000000 0.000000 0.000000 0.000004 0.000000 -0.000000 0.000023 0.000002 -0.000018 0.000001 -0.000000 -0.000002 -0.000010 -0.000001 0.000007 0.000003 -0.000001 0.000015 -0.000002 -0.000002 -0.000022 -5.060600 -4.011900 9.050000 7.534000 -5.480400 -2.712100 11.851800 -2.320800 -6.753200 -16.563700 0.943800 -7.137400 5.333600 2.564200 9.120400 4.435300 0.972200 3.630300 -0.000000 -0.000000 0.000000 -101.415300 10.008500 8.007800 22.219700 -33.224400 -6.705800 -0.000000 0.000000 -3.500900 16.377300 20.458700 5.865000 -7.125000 0.000000 -0.000000 -12.173900 50.828300 -1.770800 -0.000000 -0.000000 0.000000 76.549500 -6.301800 37.050100 -22.909500 33.989700 -7.087600 0.000000 0.000000 0.558500 -16.115900 14.222100 -4.060400 7.125000 -0.000000 -0.000000 7.733300 -15.292100 5.470700 -0.000012 0.000003 -0.000020 0.000021 -0.000004 -0.000003 -0.000007 -0.000004 0.000003 -0.000026 -0.000001 -0.000001 -0.000010 0.000000 0.000003 0.000026 -0.000088 0.000100 -0.000002 -0.000000 -0.000023 0.000005 -0.000004 0.000000 0.000017 0.000004 -0.000004 -0.000014 0.000025 0.000011 0.000009 -0.000002 0.000002 0.000004 0.000077 0.000030 0.000002 -0.000001 0.000001 0.000007 0.000003 -0.000001 0.000003 0.000000 -0.000005 -0.000032 0.000009 -0.000016 0.000031 -0.000010 0.000012 -0.000010 -0.000001 -0.000001 -0.000020 -0.000000 -0.000001 0.000006 0.000000 -0.000002 0.000017 0.000005 -0.000007 -0.000009 -0.000004 0.000008 -0.000021 0.000000 -0.000010 0.000014 -0.000001 0.000013 0.000008 0.000003 -0.000001 -0.000029 0.000008 0.000009 0.000048 0.000078 0.000053
0.000000 0.000000 0.000000 0.000004 0.000000 -0.000000 -0.607023 -1.183746 1.728573 0.782480 1.001872 -0.710821 0.886772 0.084231 -1.032851 0.279116 -0.386747 -0.061601 -2.021362 0.381777 -0.045242 -4.412400 -3.717600 8.801700 7.006900 -5.037700 -2.304700 10.755600 -2.172500 -6.371100 -16.424300 0.043300 -7.062100 5.737100 1.292000 9.131000 4.486500 0.367800 3.756500 0.000000 0.000000 0.000000 -100.294900 9.794500 9.318100 22.334900 -33.353500 -6.769100 -0.000000 0.000000 -4.036100 15.934000 20.651100 5.749700 -7.125000 0.000000 -0.000000 -12.676100 50.948100 -1.883500 0.000000 0.000000 0.000000 77.604000 -5.800500 36.431600 -23.348900 34.468100 -7.334800 0.000000 0.000000 0.091100 -15.402000 11.294300 -3.088300 7.125000 -0.000000 -0.000000 8.225000 -18.344900 5.272900 2.265558 -0.122890 -0.473906 2.700927 -0.290812 -0.215033 3.970716 1.984721 0.660671 -12.974879 -0.449661 0.234935 -2.130785 -0.553708 -0.513135 4.834714 -0.000082 0.000106 9.540271 0.761565 -0.704741 -7.849339 -0.753016 0.577973 -0.995439 1.391599 0.672668 5.439312 -0.076618 0.017426 5.198162 -1.239965 -1.215664 0.000001 0.000077 0.000028 -17.619370 0.021360 -0.137843 14.937308 0.168878 -3.819306 -12.928693 -1.893502 0.793636 4.210532 -2.734729 12.232100 -1.616897 -0.390855 0.228311 9.292845 0.005977 0.073537 -18.107515 2.368612 -4.987650 10.542284 -0.055775 0.190429 10.068957 -0.904721 4.619318 20.860298 -1.958446 3.316183 -1.585213 2.052579 -0.785506 -2.470152 -1.044112 0.972378 -2.611592 -0.825905 1.530124 -5.384995 -0.910606 2.369764 0.000053 0.000078 0.000052
